<?xml version="1.0" encoding="UTF-8"?>
<svg xmlns="http://www.w3.org/2000/svg" style="display:none">
  <!-- Menu / Hamburger -->
  <symbol id="icon-menu" viewBox="0 0 24 24">
    <path d="M4 7h16"></path>
    <path d="M4 12h16"></path>
    <path d="M4 17h16"></path>
  </symbol>

  <!-- Close -->
  <symbol id="icon-close" viewBox="0 0 24 24">
    <path d="M6 6l12 12"></path>
    <path d="M18 6l-12 12"></path>
  </symbol>

  <!-- Search -->
  <symbol id="icon-search" viewBox="0 0 24 24">
    <path d="M10.5 18a7.5 7.5 0 1 1 0-15a7.5 7.5 0 0 1 0 15z"></path>
    <path d="M16.5 16.5L21 21"></path>
  </symbol>

  <!-- Location / Pin -->
  <symbol id="icon-location" viewBox="0 0 24 24">
    <path d="M12 21s7-4.5 7-11a7 7 0 1 0-14 0c0 6.5 7 11 7 11z"></path>
    <path d="M12 10.5a2.2 2.2 0 1 0 0-4.4a2.2 2.2 0 0 0 0 4.4z"></path>
  </symbol>

  <!-- User -->
  <symbol id="icon-user" viewBox="0 0 24 24">
    <path d="M20 21a8 8 0 0 0-16 0"></path>
    <path d="M12 12a4 4 0 1 0-4-4a4 4 0 0 0 4 4z"></path>
  </symbol>

  <!-- Bag / Cart -->
  <symbol id="icon-bag" viewBox="0 0 24 24">
    <path d="M6 8h12l-1 13H7L6 8z"></path>
    <path d="M9 8a3 3 0 0 1 6 0"></path>
  </symbol>
</svg>
